<svg version="1.1" id="Capa_1" xmlns="http://www.w3.org/2000/svg" x="0" y="0" viewBox="0 0 283.5 170.1" xml:space="preserve"><style>.st0{fill:#a08d61}</style><g id="XMLID_533_"><g id="XMLID_563_"><g id="XMLID_570_"><path id="XMLID_571_" class="st0" d="M273 103.5c-1.9.2-3.3.7-4.6 1.8-.5.6-.8.7-1.7 1.8-4 6.5-8.3 12.7-12.8 18.6-25.4 24.2-35.6 10.5-30.6-41.1 7.2-15.8 11.9-34.6 13.9-56.4 4.8-19.6-7.9-21.8-21.5-2.9-4.5 14.1-7.4 28.9-8.6 44.5-23.9 16.7-42.9 35.6-56.9 56.4-3.9 8.1-1.9 15.3 7.7 12.4 2.3 27.9 27.3 34 43.5-7.6 4-12.6 7.8-10.1 11.5 7.6 11.5 26.3 26.8 23.2 44.9-1.9.1.4-.1-.3 0 0 6.8-10 14.3-17.7 19.5-28.2.3-1.1.8-1.5.1-3-1.3-1.6-2.8-2-4.4-2zM204.2 98c-4 16.9-12.8 29.8-26.3 38.7 2.9-18.2 9.8-32.5 20.6-43 4.3-3.3 6.2-1.9 5.7 4.3z"/></g><path id="XMLID_569_" class="st0" d="M174.4 103.2c-.3-1-.7-2.3-.7-2.5l-.2-.2h-1.3l-29.8 26.7c-30.6 15.8-40.1-14.8-18.6-32 7.9-3.1 16.5-8.5 25.8-16.3 13.4-11.5-2.8-21.3-18.6-9.6l-51.2 45c-4.1 7-.8 9.2 10 6.7 9.6 31.6 32.8 34.7 57.9 17.7 4.2-4.2 7.5-7.3 10-9.5 6.3-7.8 12-15.9 16.9-24.5-.1-.6-.1-1.2-.2-1.5"/><g id="XMLID_564_"><path id="XMLID_565_" class="st0" d="M42 82c-4.7.7-4.5-3.9.5-3.8 23.4-5.5 37.8-10.4 43-14.8 10-5.7 17.4-18.6 17.4-29.3C101.3 16.5 85.2 11 69.4 9.7c-15.5-1.1-29.4-.4-43.3 3C14.3 15.1 10 17.4 8.3 29c-.4 5.3.9 7.2 3.9 5.7 7-2.4 10.5-2.4 10.5 0-2 14.4-3 29.4-2.9 45-.9 2.8-1.8 4.9-4.8 6.3-.7.3-.8 1.1-.2 2.4l2.6 1.3c-.3 26.9-1.2 43.5-2.9 49.7-.4 3.9-2.6 6.1-6.7 6.7-.6 1.5-.5 2.6.5 3.4 4.5 5.2 8.8 7.4 12.9 6.7 4.3-3.6 9.8-5.8 16.3-6.7 21.9-2.4 38.1-7.5 48.8-15.3 12-10.5 13.4-20.6-.9-35.4C72.8 89.9 58.2 84.3 42 82zm-.9-35c.7-6.7 3.7-11.4 8.8-14.1 9.9-3.5 19.4-2.7 28.5 2.6 3.9 3.6 5.6 8.2 5.1 13.7-.8 3.9-5.1 8-12.8 12.1-7 3.6-13.5 6-19.7 7.4-6.8.5-10.6.2-11.4-1-.1-8 .4-14.9 1.5-20.7zm33.4 71.8c-5.4 6.6-18.6 12.7-39.7 18.4-1.8.2-2.6-.1-2.4-1.1l3.9-35.1c0-2 .2-3.2 2.2-3.6 11.5-1.3 22.7 1 33.7 6.8 5.4 3.1 6.1 7.9 2.3 14.6z"/></g></g></g></svg>