<svg version="1.1" id="Capa_1" xmlns="http://www.w3.org/2000/svg" x="0" y="0" viewBox="0 0 283.5 198.4" xml:space="preserve"><style>.st0{fill:#a08d61}</style><g id="XMLID_67_"><g id="XMLID_293_"><g id="XMLID_300_"><path id="XMLID_301_" class="st0" d="M266.3 94.4c-1.8.2-3.1.6-4.3 1.6-.5.6-.8.6-1.5 1.7-3.8 6-7.7 11.9-12 17.4-23.8 22.7-33.3 9.8-28.6-38.4 6.8-14.8 11.1-32.4 13-52.7 4.5-18.3-7.4-20.3-20.1-2.7-4.2 13.1-6.9 27-8 41.6-22.4 15.6-40.1 33.2-53.2 52.7-3.6 7.6-1.8 14.3 7.2 11.6 2.2 26.1 25.5 31.7 40.7-7.1 3.7-11.8 7.3-9.4 10.7 7.1 10.7 24.6 25.1 21.7 42-1.8.1.3-.1-.3 0 0 6.4-9.4 13.3-16.6 18.2-26.4.3-1 .7-1.4.1-2.8-1.4-1.4-2.7-1.8-4.2-1.8zM202 89.2c-3.7 15.8-11.9 27.9-24.6 36.2 2.8-17 9.2-30.4 19.2-40.2 4.1-3.1 5.8-1.7 5.4 4z"/></g><path id="XMLID_299_" class="st0" d="M174.2 94.1c-.3-.9-.7-2.2-.6-2.3l-.2-.2h-1.3l-27.9 24.9c-28.6 14.7-37.4-13.9-17.4-29.9 7.4-2.9 15.4-7.9 24.1-15.2 12.5-10.7-2.6-19.9-17.4-8.9l-47.8 42c-3.9 6.6-.7 8.6 9.4 6.3 8.9 29.5 30.6 32.4 54.1 16.5 3.9-3.9 7-6.8 9.3-8.8 5.9-7.3 11.2-14.9 15.7-22.9v-1.5"/><g id="XMLID_294_"><path id="XMLID_295_" class="st0" d="M50.4 74.3c-4.4.7-4.2-3.7.4-3.6C72.7 65.6 86.1 61 91 56.8c9.4-5.3 16.3-17.4 16.3-27.4-1.4-16.3-16.4-21.5-31.2-22.7-14.4-1-27.5-.3-40.4 2.8-11.1 2.3-15.1 4.4-16.7 15.2-.4 4.9.9 6.7 3.7 5.4 6.5-2.2 9.8-2.2 9.8 0-1.9 13.5-2.8 27.5-2.7 42-.8 2.6-1.7 4.6-4.5 5.9-.7.3-.7 1-.2 2.2l2.5 1.2c-.2 25.2-1.1 40.6-2.7 46.5-.3 3.6-2.4 5.7-6.3 6.3-.6 1.4-.4 2.5.4 3.1 4.2 4.9 8.2 6.9 12.1 6.3 4.1-3.4 9.1-5.4 15.2-6.3 20.4-2.2 35.6-7 45.6-14.3 11.2-9.8 12.5-19.2-.9-33.1-11.9-8.2-25.4-13.5-40.6-15.6zm-.9-32.7c.7-6.3 3.4-10.7 8.3-13.2 9.3-3.3 18.1-2.5 26.6 2.5 3.6 3.4 5.2 7.7 4.8 12.8-.7 3.7-4.7 7.4-12 11.3-6.5 3.3-12.6 5.6-18.4 6.9-6.4.5-9.9.2-10.6-.9-.1-7.6.3-14 1.3-19.4zm31.3 67.1c-5 6.1-17.4 11.9-37.1 17.2-1.7.2-2.5-.1-2.2-1l3.7-32.8c0-1.9.2-3 2-3.4 10.7-1.2 21.2.9 31.5 6.4 4.9 2.8 5.6 7.4 2.1 13.6z"/></g></g><g id="XMLID_68_"><path id="XMLID_256_" d="M31.7 175.7c.8.3 1.5.8 2.2 1.5 1.4 1.4 2 3 2 4.9 0 1.9-.7 3.6-2 4.9-1.1 1.1-2.5 1.8-4.2 2h-6.9v-21.4h6.4c1.2 0 2.3.4 3.1 1.3.9.9 1.3 1.9 1.3 3.1 0 1.2-.4 2.2-1.3 3.1l-.6.6zm-7.7-6.8v6.2h5.4c.9-.1 1.5-.4 2-.8.6-.6.9-1.4.9-2.3 0-.9-.3-1.6-.9-2.3-.6-.6-1.4-.9-2.2-.9H24zm4.9 19c1.6 0 2.9-.6 4-1.7s1.7-2.5 1.7-4.1c0-1.6-.6-2.9-1.7-4.1-1.1-1.1-2.5-1.7-4-1.7H24v11.5h4.9z"/><path id="XMLID_254_" d="M44.7 189.1v-21.4h1.2v20.1H54v1.2h-9.3z"/><path id="XMLID_250_" d="M70.5 167.7l7.7 21.4H77l-3.4-9.4h-7.4l-3.5 9.4h-1.3l7.8-21.4h1.3zm2.6 10.8l-3.2-9-3.3 9h6.5z"/><path id="XMLID_248_" d="M98.2 167.7h1.2V183c-.2 1.6-.9 3-2 4.2-1.4 1.4-3 2-4.9 2-1.9 0-3.6-.7-4.9-2-1.4-1.4-2-3-2-4.9v-14.6h1.2v14.6c0 1.6.6 2.9 1.7 4.1 1.1 1.1 2.5 1.7 4.1 1.7 1.6 0 2.9-.6 4.1-1.7 1.1-1.1 1.7-2.5 1.7-4.1v-14.6z"/><path id="XMLID_246_" d="M125.8 185.7l.9.8c-2.1 1.9-4.5 2.8-7.4 2.8-3 0-5.6-1.1-7.7-3.2-2.1-2.1-3.2-4.7-3.2-7.7s1.1-5.6 3.2-7.7c2.1-2.1 4.7-3.2 7.7-3.2 2.8 0 5.3 1 7.4 2.9l-.9.8c-1.8-1.6-4-2.4-6.4-2.4-2.7 0-5 .9-6.9 2.8-1.9 1.9-2.8 4.2-2.8 6.9s.9 5 2.8 6.9c1.9 1.9 4.2 2.8 6.9 2.8 2.4-.1 4.5-.9 6.4-2.5z"/><path id="XMLID_244_" d="M145.7 167.7v1.2h-9.5v8.9h9.5v1.2h-9.5v8.9h9.5v1.2H135v-21.4h10.7z"/><path id="XMLID_242_" d="M154.7 189.1v-21.4h1.2v20.1h8.1v1.2h-9.3z"/><path id="XMLID_239_" d="M176.2 167.7c3.5 0 6.2 1 8.2 2.9 2.1 2.1 3.2 4.7 3.2 7.7s-1.1 5.6-3.2 7.7c-1.9 1.9-4.7 2.9-8.2 2.9h-4v-21.4h4zm-2.8 1.3v18.9h2.7c3.1 0 5.5-.9 7.3-2.6 1.9-1.9 2.8-4.2 2.8-6.9s-.9-5-2.8-6.9c-1.8-1.7-4.2-2.6-7.3-2.6h-2.7z"/><path id="XMLID_236_" d="M214.2 170.6c2.1 2.1 3.2 4.7 3.2 7.7s-1.1 5.6-3.2 7.8c-2.1 2.1-4.7 3.2-7.8 3.2-3 0-5.6-1.1-7.7-3.2-2.1-2.1-3.2-4.7-3.2-7.8 0-3 1.1-5.6 3.2-7.7 2.1-2.1 4.7-3.2 7.7-3.2 3.1 0 5.6 1.1 7.8 3.2zm-7.8-2c-2.7 0-5 1-6.9 2.9-1.9 1.9-2.9 4.2-2.9 6.9s1 5 2.9 6.9c1.9 1.9 4.2 2.9 6.9 2.9s5-1 6.9-2.9c1.9-1.9 2.9-4.2 2.9-6.9s-1-5-2.9-6.9-4.2-2.9-6.9-2.9z"/><path id="XMLID_234_" d="M227.9 167.7l14.2 19.9v-19.9h1.2v21.4h-1.9l-13.9-19.4v19.4h-1.2v-21.4h1.6z"/><path id="XMLID_231_" d="M260.2 167.7l7.7 21.4h-1.3l-3.4-9.4h-7.4l-3.5 9.4H251l7.8-21.4h1.4zm2.6 10.8l-3.2-9-3.3 9h6.5z"/></g></g></svg>