<?xml version="1.0" encoding="utf-8"?>
<svg version="1.1" baseProfile="tiny" id="Capa_1" xmlns="http://www.w3.org/2000/svg" xmlns:xlink="http://www.w3.org/1999/xlink"
	 x="0px" y="0px" viewBox="-349.2 285.6 43.1 24.3" xml:space="preserve">
<g>
	<path fill="none" d="M-338.8,300.8c-1.7-0.9-3.5-1.3-5.3-1.1c-0.3,0.1-0.3,0.2-0.3,0.6l-0.6,5.6c0,0.2,0.1,0.2,0.4,0.2
		c3.3-0.9,5.4-1.9,6.3-2.9C-337.8,302.1-337.9,301.3-338.8,300.8z"/>
	<path fill="none" d="M-342.1,295.2c1-0.2,2-0.6,3.1-1.2c1.2-0.7,1.9-1.3,2-1.9c0.1-0.9-0.2-1.6-0.8-2.2c-1.4-0.8-2.9-1-4.5-0.4
		c-0.8,0.4-1.3,1.2-1.4,2.2c-0.2,0.9-0.2,2-0.2,3.3C-343.8,295.2-343.2,295.3-342.1,295.2z"/>
	<path fill="none" d="M-318.8,299.2c-1.7,1.7-2.8,3.9-3.3,6.8c2.1-1.4,3.5-3.5,4.2-6.1C-317.8,298.9-318.1,298.6-318.8,299.2z"/>
	<path fill="#7D7350" d="M-306.2,301c-0.2-0.2-0.4-0.3-0.7-0.3c-0.3,0-0.5,0.1-0.7,0.3c-0.1,0.1-0.1,0.1-0.3,0.3c-0.6,1-1.3,2-2,3
		c-4,3.8-5.7,1.7-4.9-6.5c1.1-2.5,1.9-5.5,2.2-8.9c0.8-3.1-1.3-3.5-3.4-0.5c-0.7,2.2-1.2,4.6-1.4,7.1c-2.6,1.8-4.8,3.8-6.7,5.9
		l-3.6,3.2c-4.9,2.5-6.4-2.4-3-5.1c1.3-0.5,2.6-1.3,4.1-2.6c2.1-1.8-0.4-3.4-3-1.5l-6.4,5.6c-0.2-0.3-0.5-0.6-0.8-1
		c-2-1.4-4.3-2.3-6.9-2.7c-0.7,0.1-0.7-0.6,0.1-0.6c3.7-0.9,6-1.6,6.8-2.4c1.6-0.9,2.8-3,2.8-4.6c-0.2-2.8-2.8-3.7-5.3-3.9
		c-2.5-0.2-4.7-0.1-6.9,0.5c-1.9,0.4-2.6,0.7-2.8,2.6c-0.1,0.8,0.1,1.1,0.6,0.9c1.1-0.4,1.7-0.4,1.7,0c-0.3,2.3-0.5,4.7-0.5,7.1
		c-0.1,0.4-0.3,0.8-0.8,1c-0.1,0.1-0.1,0.2,0,0.4l0.4,0.2c0,4.3-0.2,6.9-0.5,7.9c-0.1,0.6-0.4,1-1.1,1.1c-0.1,0.2-0.1,0.4,0.1,0.5
		c0.7,0.8,1.4,1.2,2,1.1c0.7-0.6,1.5-0.9,2.6-1.1c3.5-0.4,6-1.2,7.7-2.4c0.4-0.3,0.7-0.7,0.9-1c1.7,4,5.1,4.2,8.8,1.7
		c0.1-0.1,0.2-0.2,0.3-0.3c0.2,0.3,0.6,0.5,1.3,0.3c0.4,4.4,4.3,5.4,6.9-1.2c0.6-2,1.2-1.6,1.8,1.2c1.8,4.2,4.3,3.7,7.1-0.3
		c0,0,0,0,0,0c1.1-1.6,2.3-2.8,3.1-4.5l0,0C-306.2,301.3-306.1,301.2-306.2,301z M-343.7,291.7c0.1-1.1,0.6-1.8,1.4-2.2
		c1.6-0.6,3.1-0.4,4.5,0.4c0.6,0.6,0.9,1.3,0.8,2.2c-0.1,0.6-0.8,1.3-2,1.9c-1.1,0.6-2.1,1-3.1,1.2c-1.1,0.1-1.7,0-1.8-0.2
		C-344,293.8-343.9,292.7-343.7,291.7z M-338.4,303.1c-0.9,1-3,2-6.3,2.9c-0.3,0-0.4,0-0.4-0.2l0.6-5.6c0-0.3,0-0.5,0.3-0.6
		c1.8-0.2,3.6,0.2,5.3,1.1C-337.9,301.3-337.8,302.1-338.4,303.1z M-317.8,299.8c-0.6,2.7-2,4.7-4.2,6.1c0.5-2.9,1.6-5.2,3.3-6.8
		C-318.1,298.6-317.8,298.9-317.8,299.8z"/>
</g>
</svg>
