<?xml version="1.0" encoding="utf-8"?>
	<svg version="1.1" baseProfile="tiny" id="Capa_1" xmlns="http://www.w3.org/2000/svg" xmlns:xlink="http://www.w3.org/1999/xlink"
		 x="0px" y="0px" viewBox="-302 107.3 116 24" xml:space="preserve">
	<g>
		<path d="M-302,108.2c0-0.5,0.4-1,1-1c0.2,0,0.3,0,0.5,0.1l20.1,11c0.5,0.3,0.6,0.8,0.4,1.3c-0.1,0.2-0.2,0.3-0.4,0.4l-20.1,11
			c-0.5,0.3-1,0.1-1.3-0.4c-0.1-0.1-0.1-0.3-0.1-0.5V108.2L-302,108.2z M-300.1,110.1v18.4l8.8-9.2L-300.1,110.1L-300.1,110.1z
			 M-294.9,112.7l5,5.2l1.5-1.6L-294.9,112.7z M-286.6,121.3l3.7-2l-3.7-2l-2,2L-286.6,121.3L-286.6,121.3z M-288.4,122.3l-1.5-1.6
			l-5,5.2L-288.4,122.3L-288.4,122.3z"/>
		<path d="M-204.7,125.3v-12.6h1.9v12.6L-204.7,125.3L-204.7,125.3z M-188,117.2l-2.1,5.4h-0.1l-2.2-5.4h-2l3.3,7.6l-1.9,4.2h1.9
			l5.1-11.9L-188,117.2L-188,117.2z M-198.2,116.9c2.1,0,3.8,1.3,4,3.5v4.8h-1.8v-1h-0.1c-0.5,0.6-1.1,1.2-2.4,1.2
			c-1.6,0-3.1-1.1-3.1-2.8c0-1.8,1.8-2.8,3.6-2.8c0.8,0,1.6,0.3,1.9,0.5v-0.1c-0.1-1-1-1.6-2-1.6c-0.7,0-1.3,0.2-1.7,0.9l-1.7-0.7
			C-201,117.5-199.6,116.9-198.2,116.9L-198.2,116.9z M-198.4,123.8c1,0,2-0.8,2.2-2c-0.5-0.2-0.9-0.4-1.7-0.4c-0.9,0-2,0.3-2,1.3
			C-199.9,123.5-199,123.8-198.4,123.8L-198.4,123.8z M-209.7,112.7c2.1,0,4.1,1.5,4.1,3.9c0,2.4-2,3.9-4.1,3.9h-2.6v4.7h-1.9v-12.6
			H-209.7z M-209.6,118.7c1.3,0,2.1-1.1,2.2-2.2c0-0.9-0.8-2.1-2.2-2.1h-2.7v4.3H-209.6z M-231.8,117.9v-0.7h1.8v7.6
			c0,3.1-1.8,4.4-4,4.4c-1.6,0-3.1-1-3.8-2.5l1.6-0.7c0.2,0.7,1,1.5,2.1,1.5c1.4,0,2.3-0.9,2.3-2.5v-0.6h-0.1c-0.4,0.5-1.2,1-2.2,1
			c-2.3,0-4.1-1.9-4.1-4.2c0,0,0,0,0,0c0-2.4,2-4.3,4.1-4.3C-233.1,116.9-232.3,117.4-231.8,117.9L-231.8,117.9z M-234,123.8
			c1.3,0,2.3-1.1,2.3-2.6c0-1.5-1-2.6-2.3-2.6c-1.3,0-2.4,1.1-2.4,2.6C-236.3,122.7-235.2,123.8-234,123.8z M-228.8,125.3h1.9v-12.6
			h-1.9V125.3z M-218.4,119.7l0.2,0.5l-5.7,2.4c0.5,0.9,1.1,1.3,2.1,1.3c1,0,1.6-0.5,2.1-1.2l1.4,1c-0.4,0.7-1.6,1.9-3.5,1.9
			c-2.3,0-4.2-1.9-4.2-4.2c0,0,0-0.1,0-0.1c0-2.6,1.8-4.3,4-4.3S-218.8,118.7-218.4,119.7z M-224.1,121.1l3.8-1.6
			c-0.2-0.5-0.9-0.9-1.6-0.9C-222.8,118.6-224.1,119.5-224.1,121.1z M-263.5,118.3v1.8h4.3c-0.1,1-0.5,1.8-1,2.3
			c-0.6,0.6-1.6,1.3-3.3,1.3c-2.6,0-4.7-2.1-4.7-4.6c0-0.1,0-0.1,0-0.2c-0.1-2.6,2-4.8,4.6-4.8c0,0,0,0,0.1,0c1.4,0,2.5,0.6,3.3,1.3
			l1.3-1.3c-1.2-1.2-2.8-1.8-4.5-1.8c-3.6,0-6.6,3-6.6,6.6c0.1,3.6,3,6.6,6.6,6.6c2,0,3.4-0.6,4.6-1.9c1.1-1.2,1.6-2.7,1.6-4.2
			c0-0.4,0-0.8-0.1-1.1H-263.5z M-252.4,117c2.3-0.1,4.2,1.7,4.3,4c0,0.1,0,0.2,0,0.3c0.1,2.3-1.7,4.3-4.1,4.3c-0.1,0-0.1,0-0.2,0
			c-2.4,0-4.3-1.9-4.3-4.3c0,0,0,0,0-0.1c-0.1-2.3,1.8-4.3,4.1-4.3C-252.6,117-252.5,117-252.4,117L-252.4,117z M-252.4,123.8
			c1.3,0,2.4-1.1,2.4-2.6c0-1.6-1.1-2.6-2.4-2.6c-1.3,0-2.4,1.1-2.4,2.6C-254.8,122.7-253.7,123.8-252.4,123.8z M-243.2,117
			c2.3-0.1,4.2,1.7,4.3,4c0,0.1,0,0.2,0,0.3c0.1,2.3-1.7,4.3-4.1,4.3c-0.1,0-0.1,0-0.2,0c-2.4,0-4.3-1.9-4.3-4.3c0,0,0,0,0-0.1
			c-0.1-2.3,1.8-4.3,4.1-4.3C-243.3,117-243.3,117-243.2,117L-243.2,117z M-243.2,123.8c1.3,0,2.4-1.1,2.4-2.6c0-1.6-1.1-2.6-2.4-2.6
			c-1.3,0-2.4,1.1-2.4,2.6C-245.6,122.7-244.5,123.8-243.2,123.8L-243.2,123.8z"/>
	</g>
	</svg>
