<?xml version="1.0" encoding="utf-8"?>
	<svg version="1.1" baseProfile="tiny" id="Capa_1" xmlns="http://www.w3.org/2000/svg" xmlns:xlink="http://www.w3.org/1999/xlink"
		 x="0px" y="0px" viewBox="-302 107.3 109 24" xml:space="preserve">
	<g>
		<path d="M-262.7,127.1l-1.3-3.6h-5.1l-1.3,3.6h-1.7l4.7-12.6h1.6l4.7,12.6H-262.7z M-266.6,116.6l-2,5.6h4.1l-2-5.6H-266.6
			L-266.6,116.6z"/>
		<path d="M-254.9,117.6c2.4,0,4,1.9,4,4.9c0,2.9-1.6,4.9-4,4.9c-1.4,0-2.4-0.6-3-1.6h-0.1v4.6h-1.5v-12.5h1.4v1.6h0.1
			C-257.3,118.2-256.2,117.6-254.9,117.6z M-255.3,126c1.8,0,2.8-1.3,2.8-3.5c0-2.2-1.1-3.5-2.8-3.5c-1.7,0-2.8,1.4-2.8,3.5
			C-258.1,124.6-257,126-255.3,126L-255.3,126z M-244.4,117.6c2.4,0,4,1.9,4,4.9c0,2.9-1.6,4.9-4,4.9c-1.4,0-2.4-0.6-3-1.6h-0.1v4.6
			h-1.5v-12.5h1.4v1.6h0.1C-246.9,118.2-245.7,117.6-244.4,117.6z M-244.8,126c1.7,0,2.8-1.3,2.8-3.5c0-2.2-1-3.5-2.8-3.5
			c-1.7,0-2.8,1.4-2.8,3.5C-247.6,124.6-246.5,126-244.8,126z M-234.4,123.9h1.6c0.2,1.3,1.5,2.1,3.3,2.1c1.7,0,3-0.9,3-2.2
			c0-1.1-0.8-1.8-2.6-2.2l-1.6-0.4c-2.3-0.6-3.3-1.6-3.3-3.4c0-2.1,1.8-3.6,4.5-3.6c2.5,0,4.3,1.5,4.4,3.5h-1.6c-0.2-1.3-1.3-2-2.9-2
			c-1.7,0-2.8,0.8-2.8,2.1c0,1,0.7,1.6,2.4,2l1.3,0.4c2.6,0.6,3.7,1.7,3.7,3.5c0,2.3-1.8,3.8-4.8,3.8
			C-232.4,127.4-234.3,126-234.4,123.9L-234.4,123.9z M-222.4,115.3h1.5v2.4h2.1v1.2h-2.1v5.3c0,1.1,0.4,1.6,1.4,1.6
			c0.3,0,0.4,0,0.7,0v1.3c-0.3,0-0.6,0.1-0.9,0.1c-1.9,0-2.7-0.7-2.7-2.5V119h-1.5v-1.3h1.5V115.3L-222.4,115.3z M-213.2,127.3
			c-2.7,0-4.4-1.9-4.4-4.9c0-3,1.7-4.9,4.4-4.9c2.7,0,4.4,1.8,4.4,4.9C-208.9,125.5-210.5,127.3-213.2,127.3z M-213.2,126
			c1.8,0,2.8-1.3,2.8-3.5c0-2.2-1-3.5-2.8-3.5c-1.8,0-2.8,1.3-2.8,3.5C-216.1,124.7-215,126-213.2,126z M-207,127.1v-9.4h1.4v1.4h0.1
			c0.3-0.9,1.4-1.6,2.6-1.6c0.2,0,0.6,0,0.8,0v1.5c-0.3-0.1-0.6-0.1-1-0.1c-1.4,0-2.5,1-2.5,2.3v5.8H-207L-207,127.1z M-194.6,124.7
			h1.5c-0.5,1.6-1.9,2.6-4,2.6c-2.6,0-4.3-1.9-4.3-4.9c0-3,1.7-4.9,4.3-4.9c2.6,0,4.1,1.8,4.1,4.7v0.6h-6.8v0.1c0.1,1.9,1.1,3,2.7,3
			C-195.9,126-195,125.5-194.6,124.7z M-197.1,118.9c-1.5,0-2.6,1.1-2.7,2.8h5.2C-194.6,120-195.6,118.9-197.1,118.9z M-287.1,112.6
			c2.7,0,4.5,2.7,4.5,2.7s-2.7,1.5-2.7,4.7c0,3.8,3.3,4.9,3.3,4.9s-2.6,6.4-5.6,6.4c-1.6,0-1.8-1-4-1c-1.9,0-2.6,1-4,1
			c-2.8,0-6.4-6.2-6.4-11.3c0-5.3,3.6-7.4,5.9-7.4c2,0,2.8,1.2,4.5,1.2C-290.2,113.8-289.2,112.6-287.1,112.6L-287.1,112.6z"/>
		<path d="M-287.6,107.3c0.4,2.6-1.9,5.8-4.6,5.7C-292.6,109.7-289.7,107.4-287.6,107.3z"/>
	</g>
	</svg>
